<?xml version="1.0" encoding="utf-8"?>
<svg version="1.1" xmlns="http://www.w3.org/2000/svg" xmlns:xlink="http://www.w3.org/1999/xlink" x="0px" y="0px"
	 viewBox="0 0 1739.5 1739.5" enable-background="new 0 0 1739.5 1739.5" xml:space="preserve">
<g id="_x35_">
	<g id="color_6_">
		<g>
			<path fill="#E73837" d="M1318.5,926.8c-94.7,165.9-292.1,284.9-448.8,354.9c-156.7-70-354.1-189-448.8-354.9
				c-72.2-126.3-63.5-305.5,49.5-405.8c109.7-97.2,295.6-86.2,399.3,14.3C973.5,434.8,1159.3,423.8,1269,521
				C1382,621.2,1390.7,800.5,1318.5,926.8z"/>
			<path fill="#E60012" d="M869.7,1293.7l-4.5-2c-124.7-55.7-349.4-176.5-453.8-359.5C374.2,867,357.8,789.1,365.4,713
				c8-80.2,42.7-151.4,97.8-200.2c51-45.2,120.3-70,195.1-70c79.9,0,156.3,28.2,211.4,77.6c55.1-49.4,131.5-77.6,211.4-77.6
				c74.9,0,144.2,24.9,195.1,70c55.1,48.9,89.8,120,97.8,200.3c7.6,76.1-8.8,153.9-46.1,219.2c-104.5,183-329.2,303.8-453.8,359.5
				L869.7,1293.7z"/>
		</g>
		<path fill="#FFFFFF" d="M996.7,774.5c-4.1,10.6-10.4,14.4-17.4,14.5c-7,0-13.2-3.9-17.3-14.5c-3.2-8.2-5.3-21.6-5.3-33.2
			c0-11.8,1.7-25,5-33.3c4.1-10.3,10.5-14.5,17.4-14.5c6.9,0,13.5,5.1,17.7,15.5c3.3,8.3,5,20.5,5,32.2
			C1001.8,752.7,999.9,766.2,996.7,774.5z"/>
		<path fill="#FFFFFF" d="M777.5,774.4c-4.2,10.6-10.3,14.6-17.3,14.5c-7,0-13.3-3.9-17.4-14.5c-3.2-8.3-5-21.8-5-33.4
			c0-11.7,1.7-23.9,5-32.2c4.2-10.4,10.8-15.5,17.7-15.5c6.9,0,13.3,4.2,17.4,14.5c3.3,8.4,5,21.5,5,33.3
			C782.8,752.8,780.7,766.2,777.5,774.4z"/>
	</g>
	<g id="line_5_">
		<g>
			<path fill="#150301" d="M1405.6,709.9c-8.8-88.2-47.2-166.6-108.3-220.8c-56.8-50.3-133.5-78-216.1-78
				c-77.9,0-153,24.6-211.4,68.3c-58.5-43.8-133.5-68.3-211.4-68.3c-82.6,0-159.3,27.7-216.1,78c-61.1,54.2-99.5,132.6-108.3,220.8
				c-8.2,82.6,9.6,167.1,50.1,238c45.9,80.4,117.6,156.7,213,226.7c78.5,57.6,173.5,110.7,272.8,153.8h0
				c99.3-43.2,194.3-96.2,272.8-153.8c95.4-70,167.1-146.2,213-226.7C1396,877,1413.8,792.5,1405.6,709.9z M1318.5,926.8
				c-94.7,165.9-292.1,284.9-448.8,354.9h0c-156.7-70-354.1-189-448.8-354.9c-72.2-126.3-63.5-305.5,49.5-405.8
				c51.4-45.5,119.4-67.3,187.9-67.3c77.8,0,156.3,28.1,211.4,81.6l0,0v0c55.2-53.4,133.6-81.6,211.4-81.6
				c68.5,0,136.5,21.8,187.9,67.3C1382,621.2,1390.7,800.5,1318.5,926.8z M980.2,682.7c-38.5-3.5-38.4,57.9-38.4,128.9
				c0,70.9,5.7,128.8,39.5,128.4c35.4-0.4,40-60.2,40-131.1C1021.2,737.9,1013.6,685.7,980.2,682.7z M994.4,770.1
				c-3.6,9.2-9,12.5-15.1,12.6c-6.1,0-11.5-3.4-15.1-12.6c-2.8-7.2-4.6-18.8-4.6-28.8c0-10.3,1.4-21.7,4.3-29
				c3.6-8.9,9.1-12.6,15.1-12.6c6,0,11.8,4.4,15.4,13.5c2.9,7.2,4.3,17.8,4.3,28C998.8,751.2,997.2,762.9,994.4,770.1z M759.3,682.7
				c-33.4,3.1-41,55.3-41,126.2c0,70.9,4.6,130.7,40,131.1c33.8,0.4,39.5-57.5,39.5-128.4C797.8,740.6,797.8,679.1,759.3,682.7z
				 M775.2,770.1c-3.6,9.2-9,12.7-15.1,12.6c-6,0-11.5-3.4-15.1-12.6c-2.8-7.2-4.4-18.9-4.3-29c0-10.2,1.5-20.8,4.3-28
				c3.6-9.1,9.3-13.5,15.4-13.5c6,0,11.5,3.7,15.1,12.6c2.9,7.3,4.4,18.7,4.3,29C779.8,751.3,778,762.9,775.2,770.1z"/>
		</g>
	</g>
</g>
</svg>
